<svg xmlns="http://www.w3.org/2000/svg" width="1200" height="400" viewBox="0 0 1200 400">
  <style>
    .axis {
      fill: none;
      stroke: #222;
      stroke-width: 2px;
      stroke-miterlimit: 10;
    }
    .distribution {
      fill: #e6e7e8;
      opacity: 0.75;
      stroke: #222;
      stroke-width: 0.5px;
      stroke-miterlimit: 10;
    }
    .marker {
      fill: #888;
      stroke: #222;
      stroke-miterlimit: 10;
    }
    .annotation-box {
      fill: #fff;
      stroke: #888;
      stroke-width: 0.5px;
      stroke-miterlimit: 10;
    }
    .annotation-text {
      fill: #222;
      font-family: "Source Code Pro", monospace;
      font-size: 24px;
    }
    .axis-label {
      fill: #888;
      font-family: "Source Code Pro", monospace;
      font-size: 18px;
    }
  </style>
  <line class="axis" x1="125" y1="299" x2="925" y2="299"/>
  <path class="distribution" d="M125.74,289.75h685.91c-28.41-1.72-67.83-5.65-113.75-15.27-83.13-17.43-136.36-28.58-182.48-65.99-42.84-34.75-51.73-69.58-83.38-69.23-29.85.33-39.4,31.5-62.9,28.85-41.1-4.64-47.19-103.95-77.53-104.49-5.05-.09-13.04,2.52-38.77,44.23-25.06,40.63-36.53,69.02-45.35,86.54-12.62,25.05-35.72,59.41-81.74,95.37Z"/>
  <rect class="marker" x="714.58" y="255.75" width="34" height="34" rx="4" ry="4"/>
  <rect class="annotation-box" x="474.96" y="308.25" width="375" height="42.31" rx="5" ry="5"/>
  <text class="annotation-text" x="481.07" y="337.55">This looks like a choice.</text>
  <text class="axis-label" x="125" y="326.91">ENVIRONMENT</text>
</svg>
