<svg id="availability" xmlns="http://www.w3.org/2000/svg" width="1200" height="400" viewBox="0 0 1200 400">
  <line class="axis" x1="125" y1="299" x2="925" y2="299"/>
  <path class="distribution" d="M125.74,289.75h685.91c-28.41-1.72-67.83-5.65-113.75-15.27-83.13-17.43-136.36-28.58-182.48-65.99-42.84-34.75-51.73-69.58-83.38-69.23-29.85.33-39.4,31.5-62.9,28.85-41.1-4.64-47.19-103.95-77.53-104.49-5.05-.09-13.04,2.52-38.77,44.23-25.06,40.63-36.53,69.02-45.35,86.54-12.62,25.05-35.72,59.41-81.74,95.37Z"/>
  <g class="fragment fade-in" data-fragment-index="0">
    <path class="distribution" d="M542.02,289.75s381.98,0,381.98,0c-16.29-10.85-41.09-29.78-64.61-60-23.38-30.03-29.39-50.51-66.6-117.59-40.62-73.22-50.71-79.92-59.77-79.49-5.67.27-17.01,3.62-51.03,76.92-31.48,67.84-31.18,85.25-50.15,112.82-14.25,20.7-40.06,48.15-89.81,67.33Z"/>
  </g>
  <rect class="marker" x="714.58" y="255.75" width="34" height="34" rx="4" ry="4"/>
  <rect class="annotation-box" x="474.96" y="308.25" width="375" height="42.31" rx="5" ry="5"/>
  <text class="annotation-text" x="481.07" y="337.55">This looks like a choice.</text>
  <g class="fragment fade-in" data-fragment-index="0">
    <rect class="annotation-box" x="456.11" y="193.36" width="405" height="42.31" rx="5" ry="5"/>
    <text class="annotation-text" x="462.23" y="222.66">This looks like acceptance.</text>
  </g>
  <text class="axis-label" x="125" y="326.91">ENVIRONMENT</text>
</svg>
