<svg xmlns="http://www.w3.org/2000/svg" width="939.84" height="380" viewBox="116.66 95.5 939.84 380">
<defs>
<circle id="dot" r="5.4" class="fd"/>
</defs>
<g>
<polyline class="sg" points="500.5 450.5 151.1 450.5 150.5 449.9 150.5 100.5"/>
<polyline class="sg" points="1051.5 450.5 702.1 450.5 701.5 449.9 701.5 100.5"/>
<text class="tki" text-anchor="end" x="140.5" y="123.6">E</text>
<text class="tki" text-anchor="end" x="500.5" y="470.5">n</text>
<text class="tki" text-anchor="end" x="1051.5" y="470.5">n</text>
<text class="tn" text-anchor="end" x="691.5" y="124">Suitability</text>
<text class="tkg" text-anchor="end" x="691.5" y="158.7">[AP]</text>
<text class="tki" text-anchor="end" x="691.5" y="221.2">B</text>
<path class="sg" d="M162.2,439.22c6.65-27.14,32.02-116.17,118.57-183.82,91.73-71.77,190.86-71.5,217.51-70.53"/>
<line class="sg sg-dash" x1="701.5" y1="211.6" x2="1051.5" y2="211.6"/>
</g>
<g class="fragment fade-in" data-fragment-index="1">
<line class="sd sg-dash" x1="701.5" y1="211.6" x2="773.3" y2="249.7"/>
<use href="#dot" x="773.3" y="249.7"/>
</g>
<g class="fragment fade-in-then-out" data-fragment-index="1">
<line class="sd" x1="162.2" y1="439.22" x2="228.0" y2="307.2"/>
<line class="sd" x1="163.8" y1="386.2" x2="228.0" y2="307.2"/>
<text class="tk" x="219.9" y="354.7">AP</text>
<text class="tk" x="162.8" y="329.5">MP</text>
</g>
<g class="fragment fade-in" data-fragment-index="2">
<line class="sd sg-dash" x1="773.3" y1="249.7" x2="870.3" y2="307.6"/>
<use href="#dot" x="870.3" y="307.6"/>
</g>
<g class="fragment fade-in-then-out" data-fragment-index="2">
<line class="sd" x1="162.2" y1="439.22" x2="324.9" y2="226.3"/>
<line class="sd" x1="162.2" y1="314.6" x2="324.9" y2="226.3"/>
<text class="tk" x="290.1" y="294.7">AP</text>
<text class="tk" x="224.1" y="249.9">MP</text>
</g>
<g class="fragment fade-in" data-fragment-index="3">
<line class="sd sg-dash" x1="870.3" y1="307.6" x2="961.4" y2="401.9"/>
<use href="#dot" x="961.4" y="401.9"/>
</g>
<g class="fragment fade-in" data-fragment-index="3">
<line class="sd" x1="162.2" y1="439.22" x2="416.8" y2="192.3"/>
<line class="sd" x1="162.2" y1="228.3" x2="416.8" y2="192.3"/>
<text class="tk" x="379.8" y="253.6">AP</text>
<text class="tk" x="316.1" y="192.3">MP</text>
</g>
</svg>
