<svg xmlns="http://www.w3.org/2000/svg" width="939.84" height="380" viewBox="116.66 95.5 939.84 380">
<defs>
<circle id="dot" r="5.4" class="fd"/>
</defs>
<g>
<polyline class="sg" points="500.5 450.5 151.1 450.5 150.5 449.9 150.5 100.5"/>
<polyline class="sg" points="1051.5 450.5 702.1 450.5 701.5 449.9 701.5 100.5"/>
<text class="tki" text-anchor="end" x="140.5" y="123.6">E</text>
<text class="tki" text-anchor="end" x="500.5" y="470.5">n</text>
<text class="tki" text-anchor="end" x="1051.5" y="470.5">n</text>
<text class="tn" text-anchor="end" x="691.5" y="124">Suitability</text>
<text class="tkg" text-anchor="end" x="691.5" y="158.7">[AP]</text>
<text class="tki" text-anchor="end" x="691.5" y="354.1">B</text>
<path class="sg" d="M440.1,100.5c-2.14,33.01,-12.38,123.51,-80.72,209.44,-72.74,91.37,-165.95,120.47,-197.15,128.77"/>
<line class="sg sg-dash" x1="701.5" y1="345.1" x2="1051.5" y2="345.1"/>
</g>
<g class="fragment fade-in" data-fragment-index="1">
<line class="sd sg-dash" x1="701.5" y1="344.6" x2="773.3" y2="306.5"/>
<use href="#dot" x="773.3" y="306.5"/>
</g>
<g class="fragment fade-in-then-out" data-fragment-index="1">
<line class="sd" x1="162.2" y1="438.8" x2="228.0" y2="414.2"/>
<line class="sd" x1="182.4" y1="438.8" x2="228.0" y2="414.2"/>
<text class="tk" x="160.2" y="417.6">AP</text>
<text class="tk" x="228.0" y="441.3">MP</text>
</g>
<g class="fragment fade-in" data-fragment-index="2">
<line class="sd sg-dash" x1="773.3" y1="306.5" x2="870.3" y2="248.6"/>
<use href="#dot" x="870.3" y="248.6"/>
</g>
<g class="fragment fade-in-then-out" data-fragment-index="2">
<line class="sd" x1="162.2" y1="438.8" x2="325.5" y2="346.9"/>
<line class="sd" x1="231.5" y1="438.6" x2="324.9" y2="346.9"/>
<text class="tk" x="250.8" y="354">AP</text>
<text class="tk" x="306.0" y="400.7">MP</text>
</g>
<g class="fragment fade-in" data-fragment-index="3">
<line class="sd sg-dash" x1="870.3" y1="248.6" x2="961.5" y2="154.4"/>
<use href="#dot" x="961.5" y="154.4"/>
</g>
<g class="fragment fade-in" data-fragment-index="3">
<line class="sd" x1="162.2" y1="438.8" x2="416.8" y2="208.4"/>
<line class="sd" x1="339.2" y1="438.6" x2="416.8" y2="208.4"/>
<text class="tk" x="331.8" y="242.3">AP</text>
<text class="tk" x="409.9" y="277.5">MP</text>
</g>
</svg>
