<?xml version="1.0" encoding="UTF-8"?>
<svg id="uuid-5697c62e-8be9-40b1-ae63-05c9d8c4e129" data-name="Layer 1" xmlns="http://www.w3.org/2000/svg" width="1050" height="500" viewBox="0 0 1050 500">
  <defs>
    <style>
      .uuid-b16369d4-d3d3-435a-b3fd-15596cf25d79, .uuid-44e08706-7b5b-477f-b626-df92ee516adf, .uuid-f94d794b-5d90-47f1-9989-cd0e4bce3723, .uuid-5f7aa33d-b7db-451c-96d2-820254a85719, .uuid-dddf2ef4-81fe-4750-9bef-958d7df8e5b5 {
        fill: none;
        stroke-miterlimit: 10;
      }

      .uuid-b16369d4-d3d3-435a-b3fd-15596cf25d79, .uuid-44e08706-7b5b-477f-b626-df92ee516adf, .uuid-5f7aa33d-b7db-451c-96d2-820254a85719, .uuid-dddf2ef4-81fe-4750-9bef-958d7df8e5b5 {
        stroke: #231f20;
        stroke-width: 2px;
      }

      .uuid-0b52a5d0-ad35-4db3-a0d0-99f66c3274b9 {
        letter-spacing: 0em;
      }

      .uuid-73f53738-4a8a-4548-9f40-9d70ac94cab8 {
        letter-spacing: -.02em;
      }

      .uuid-3d57059a-64a9-4f51-88d5-8de5c896d72f {
        fill: #231f20;
        font-family: NotoSans-Regular, 'Noto Sans';
        font-size: 24px;
        font-variation-settings: 'wght' 400, 'wdth' 100;
      }

      .uuid-bcd5830f-b3b6-41ec-ad49-7bf25aafba2b {
        fill: #808285;
        font-family: SourceCodePro-Regular, 'Source Code Pro';
        font-size: 20px;
        font-variation-settings: 'wght' 400;
      }

      .uuid-44e08706-7b5b-477f-b626-df92ee516adf {
        stroke-dasharray: 5.92 5.92;
      }

      .uuid-f94d794b-5d90-47f1-9989-cd0e4bce3723 {
        stroke: #808285;
      }

      .uuid-5f7aa33d-b7db-451c-96d2-820254a85719 {
        stroke-dasharray: 6;
      }

      .uuid-dddf2ef4-81fe-4750-9bef-958d7df8e5b5 {
        stroke-dasharray: 6.05 6.05;
      }
    </style>
  </defs>
  <line class="uuid-f94d794b-5d90-47f1-9989-cd0e4bce3723" x1="209.46" y1="96.31" x2="209.46" y2="396.31"/>
  <line class="uuid-f94d794b-5d90-47f1-9989-cd0e4bce3723" x1="509.46" y1="396.31" x2="209.46" y2="396.31"/>
  <line class="uuid-f94d794b-5d90-47f1-9989-cd0e4bce3723" x1="551.77" y1="96.31" x2="551.77" y2="396.31"/>
  <line class="uuid-f94d794b-5d90-47f1-9989-cd0e4bce3723" x1="851.77" y1="396.31" x2="551.77" y2="396.31"/>
  <text class="uuid-3d57059a-64a9-4f51-88d5-8de5c896d72f" transform="translate(209.46 89.05)"><tspan x="0" y="0">Habitat One</tspan></text>
  <text class="uuid-3d57059a-64a9-4f51-88d5-8de5c896d72f" transform="translate(551.77 89.29)"><tspan x="0" y="0">Habitat </tspan><tspan class="uuid-73f53738-4a8a-4548-9f40-9d70ac94cab8" x="89.23" y="0">T</tspan><tspan class="uuid-0b52a5d0-ad35-4db3-a0d0-99f66c3274b9" x="102.09" y="0">wo</tspan></text>
  <text class="uuid-bcd5830f-b3b6-41ec-ad49-7bf25aafba2b" transform="translate(766.81 419.94)"><tspan x="0" y="0">DENSITY</tspan></text>
  <text class="uuid-bcd5830f-b3b6-41ec-ad49-7bf25aafba2b" transform="translate(71.72 111.13)"><tspan x="0" y="0">SUITABILITY</tspan></text>
  <line class="uuid-f94d794b-5d90-47f1-9989-cd0e4bce3723" x1="343.46" y1="330.27" x2="741.02" y2="330.27"/>
  <text class="uuid-bcd5830f-b3b6-41ec-ad49-7bf25aafba2b" transform="translate(750.64 336.2)"><tspan x="0" y="0">EQUILIBRIUM</tspan></text>
  <path class="uuid-b16369d4-d3d3-435a-b3fd-15596cf25d79" d="M221,223.23c13.18,2.74,59.35,14.02,94.87,57.69,35.98,44.22,37.27,92.43,37.18,105.77"/>
  <g>
    <path class="uuid-b16369d4-d3d3-435a-b3fd-15596cf25d79" d="M221.22,132.47c.89.2,1.87.43,2.92.68"/>
    <path class="uuid-44e08706-7b5b-477f-b626-df92ee516adf" d="M229.88,134.59c28.77,7.6,92.68,29.83,143.05,92.48,48.96,60.9,57.57,125.68,59.31,153.54"/>
    <path class="uuid-b16369d4-d3d3-435a-b3fd-15596cf25d79" d="M432.4,383.57c.05,1.07.1,2.07.14,2.99"/>
  </g>
  <path class="uuid-b16369d4-d3d3-435a-b3fd-15596cf25d79" d="M565.65,178.49c19.57,3.57,76.92,16.65,125.22,67.82,52.58,55.7,60.04,120.07,61.54,139.04"/>
  <g>
    <path class="uuid-b16369d4-d3d3-435a-b3fd-15596cf25d79" d="M565.4,239.65c.85.19,1.82.42,2.91.69"/>
    <path class="uuid-dddf2ef4-81fe-4750-9bef-958d7df8e5b5" d="M574.15,241.91c17.99,5.25,51.91,18.74,79.04,52.48,26.92,33.48,32.76,69,34.14,86.28"/>
    <path class="uuid-b16369d4-d3d3-435a-b3fd-15596cf25d79" d="M687.54,383.7c.07,1.11.11,2.11.15,2.99"/>
  </g>
  <line class="uuid-5f7aa33d-b7db-451c-96d2-820254a85719" x1="703.32" y1="132.6" x2="735.49" y2="132.6"/>
  <line class="uuid-b16369d4-d3d3-435a-b3fd-15596cf25d79" x1="703.32" y1="164.95" x2="735.49" y2="164.95"/>
  <text class="uuid-3d57059a-64a9-4f51-88d5-8de5c896d72f" transform="translate(746.28 141.11)"><tspan x="0" y="0">Species A</tspan></text>
  <text class="uuid-3d57059a-64a9-4f51-88d5-8de5c896d72f" transform="translate(746.28 174.53)"><tspan x="0" y="0">Species B</tspan></text>
</svg>